<?xml version="1.0" standalone="no"?>
<!DOCTYPE svg PUBLIC "-//W3C//DTD SVG 20010904//EN"
 "http://www.w3.org/TR/2001/REC-SVG-20010904/DTD/svg10.dtd">
<svg version="1.0" xmlns="http://www.w3.org/2000/svg"
 width="1024.000000pt" height="800pt" viewBox="0 0 1024.000000 1024.000000"
 preserveAspectRatio="xMidYMid meet">

<g transform="translate(0.000000,1024.000000) scale(0.100000,-0.100000)"
fill="red" stroke="none">
<path d="M5980 8638 c0 -9 5 -20 10 -23 13 -8 13 5 0 25 -8 13 -10 13 -10 -2z"/>
<path d="M6282 7999 c-13 -23 -37 -46 -52 -53 l-29 -12 29 -11 c18 -7 36 -26
50 -54 l22 -43 20 38 c11 21 32 45 48 54 l28 16 -24 13 c-14 6 -32 10 -42 7
-12 -4 -13 -3 -4 3 9 7 8 17 -6 46 l-17 36 -23 -40z m23 -59 c-3 -6 -12 -10
-18 -10 -8 0 -7 3 2 9 7 5 10 14 6 20 -5 9 -11 7 -20 -5 -15 -21 -9 -47 9 -37
6 3 8 3 4 -2 -4 -4 0 -22 9 -39 20 -40 6 -27 -23 21 -21 36 -21 39 -6 65 15
26 16 26 29 8 8 -11 11 -25 8 -30z m20 32 c-3 -3 -11 0 -18 7 -9 10 -8 11 6 5
10 -3 15 -9 12 -12z m23 -46 c-7 -8 -15 -12 -17 -11 -5 6 10 25 20 25 5 0 4
-6 -3 -14z m-27 -23 c13 -16 12 -17 -3 -4 -10 7 -18 15 -18 17 0 8 8 3 21 -13z"/>
<path d="M5790 7701 c0 -5 7 -11 14 -14 10 -4 13 -1 9 9 -6 15 -23 19 -23 5z"/>
<path d="M5826 7595 c-10 -28 -7 -66 7 -80 12 -11 14 -5 13 35 -1 52 -10 71
-20 45z"/>
<path d="M5850 7555 c0 -8 2 -15 4 -15 2 0 6 7 10 15 3 8 1 15 -4 15 -6 0 -10
-7 -10 -15z"/>
<path d="M4061 7544 c0 -11 3 -14 6 -6 3 7 2 16 -1 19 -3 4 -6 -2 -5 -13z"/>
<path d="M5755 7540 c3 -6 -2 -13 -12 -17 -10 -4 -24 -15 -31 -25 -18 -25 -32
-23 -33 5 -1 17 -3 15 -10 -10 -6 -19 -16 -33 -25 -33 -11 0 -13 -6 -9 -20 5
-16 2 -20 -14 -20 -22 0 -39 -39 -25 -61 4 -8 3 -9 -4 -5 -7 4 -12 1 -12 -8 0
-8 -5 -18 -12 -22 -8 -5 -9 2 -4 26 3 19 3 30 -1 26 -5 -4 -11 -40 -14 -79 -3
-40 -13 -124 -22 -187 -9 -63 -21 -173 -26 -245 -14 -171 -39 -260 -107 -376
-21 -35 -43 -69 -48 -75 -6 -6 -22 -25 -36 -43 -30 -39 -210 -221 -219 -221
-7 0 -53 -40 -123 -106 -26 -24 -52 -44 -58 -44 -6 0 -9 -4 -6 -9 4 -5 -6 -19
-21 -30 -24 -17 -26 -22 -13 -31 11 -8 8 -9 -12 -4 -24 5 -28 3 -28 -14 0 -13
-14 -29 -37 -44 -31 -18 -34 -23 -19 -26 10 -2 23 3 27 11 5 8 25 24 44 36 29
17 35 18 35 5 0 -9 -7 -23 -16 -32 -15 -14 -15 -16 5 -24 11 -4 21 -15 20 -25
0 -11 -3 -13 -6 -5 -2 7 -22 12 -44 12 -29 0 -39 -4 -39 -16 0 -14 -9 -16 -51
-12 -43 4 -55 2 -75 -17 -15 -14 -32 -21 -44 -18 -18 5 -20 0 -20 -36 0 -38 2
-41 26 -41 26 0 25 -1 -17 -40 -48 -43 -59 -48 -59 -25 0 11 -11 15 -40 15
-34 0 -41 -4 -46 -25 -3 -14 -10 -25 -15 -25 -5 0 -9 -7 -9 -15 0 -8 -6 -15
-12 -15 -7 0 -20 -5 -28 -10 -13 -9 -13 -11 0 -19 8 -6 11 -13 7 -18 -5 -4
-13 -1 -18 7 -8 11 -9 8 -5 -12 8 -37 -4 -119 -17 -111 -5 3 -7 1 -4 -4 4 -6
4 -26 0 -44 -5 -28 -7 -30 -14 -14 -6 16 -8 13 -8 -12 -1 -18 -5 -33 -11 -33
-12 0 -12 -4 1 83 6 40 17 83 24 97 7 14 16 44 20 65 4 22 20 68 36 103 16 35
29 66 29 68 0 12 65 139 72 142 4 2 8 10 8 18 0 18 57 103 129 194 29 36 59
74 68 85 8 11 30 35 47 53 26 28 28 34 16 43 -13 9 -12 10 2 5 11 -3 31 9 58
36 22 22 39 43 36 45 -2 3 -14 -5 -25 -16 -27 -27 -45 -28 -32 -2 14 25 -13
64 -28 41 -7 -10 -7 -16 -1 -18 6 -2 8 -8 4 -13 -3 -5 -59 -9 -125 -9 -99 0
-119 -3 -119 -15 0 -11 -11 -15 -40 -15 -24 0 -40 5 -40 12 0 6 -7 3 -15 -8
-18 -24 -18 -31 -2 -37 6 -2 -1 -2 -18 0 -25 3 -27 2 -12 -7 25 -16 22 -33 -4
-20 -27 15 -40 2 -16 -15 12 -9 15 -15 7 -20 -6 -4 -12 -5 -13 -4 -30 58 -41
59 -69 10 -20 -36 -27 -41 -60 -41 -21 0 -38 5 -38 10 0 6 10 10 23 10 21 1
22 1 3 15 -30 22 -42 18 -65 -20 -21 -36 -41 -46 -41 -21 0 10 -11 13 -35 12
-41 -3 -51 -19 -15 -24 14 -2 29 -7 33 -11 10 -10 -51 -24 -64 -15 -5 3 -9 0
-9 -5 0 -6 5 -11 10 -11 6 0 21 -9 33 -21 21 -19 21 -21 5 -33 -10 -7 -18 -18
-18 -23 0 -6 -6 -16 -14 -22 -24 -20 -31 8 -7 28 12 10 21 26 21 35 0 23 -47
21 -59 -3 -16 -29 -48 -33 -56 -7 -5 15 -8 17 -12 7 -3 -9 5 -23 21 -36 25
-20 36 -55 16 -55 -5 0 -10 7 -10 15 0 24 -16 18 -45 -17 -20 -23 -29 -28 -35
-18 -6 9 -10 7 -15 -9 -5 -16 -12 -20 -26 -16 -10 4 -19 2 -19 -3 0 -6 5 -12
12 -14 8 -3 7 -11 -5 -28 l-17 -24 0 24 c0 20 -2 22 -10 10 -5 -8 -7 -24 -4
-35 4 -15 3 -16 -4 -6 -8 11 -12 10 -21 -7 -15 -28 -14 -38 6 -58 16 -16 16
-16 -6 -9 -20 6 -22 4 -17 -17 3 -12 3 -17 0 -10 -9 19 -24 14 -24 -8 0 -11
-4 -28 -10 -38 -16 -30 -39 -144 -50 -252 -15 -146 -23 -198 -27 -180 -5 21
-83 15 -83 -6 0 -20 -99 -20 -106 1 -4 8 -17 15 -29 15 -13 0 -26 6 -28 13 -3
6 -6 -7 -6 -30 -1 -28 4 -43 13 -45 12 -3 12 -5 0 -16 -12 -11 -14 -10 -14 3
0 21 -18 19 -22 -2 -11 -50 -29 169 -26 315 1 89 0 162 -4 162 -3 0 -8 -7 -10
-15 -4 -20 -24 -5 -33 25 -7 24 -7 24 9 5 19 -25 20 -16 2 19 l-14 27 -6 -26
c-4 -14 -2 -34 4 -45 5 -10 10 -25 10 -32 -1 -7 -7 -2 -15 12 -13 24 -13 23
-9 -20 2 -30 1 -37 -4 -21 -6 20 -13 3 -34 -85 -84 -340 -52 -774 82 -1142 49
-136 154 -333 233 -441 l40 -54 -94 6 c-69 4 -122 15 -200 41 -220 73 -462 69
-568 -11 -39 -30 -70 -93 -71 -143 0 -78 68 -159 160 -190 19 -6 85 -14 145
-17 142 -7 224 12 396 96 70 33 149 65 175 72 35 8 553 10 1859 7 1719 -3
1812 -2 1838 15 37 24 38 77 1 106 -26 20 -39 21 -300 21 -151 0 -274 3 -274
7 0 3 6 14 13 22 35 42 133 210 181 312 122 260 183 532 174 786 -2 67 -9 128
-14 133 -7 7 -23 -14 -49 -66 -83 -164 -214 -306 -430 -468 -221 -166 -355
-308 -430 -456 -10 -19 -20 -30 -22 -23 -8 22 27 137 62 210 66 135 133 209
374 412 143 120 219 208 302 346 109 182 156 342 166 565 7 158 -7 306 -43
469 -35 158 -119 396 -135 385 -4 -2 -7 4 -6 14 2 28 -24 83 -36 75 -6 -3 -7
-1 -3 5 4 6 -3 28 -14 49 -12 21 -19 29 -16 18 6 -20 6 -20 -9 -1 -18 23 -20
40 -4 30 7 -4 3 8 -7 25 -22 38 -75 100 -72 86 0 -5 -2 -18 -7 -28 -9 -22 13
-53 29 -37 12 12 26 13 26 1 0 -15 -39 -20 -53 -7 -13 13 -57 19 -57 7 0 -4 9
-43 21 -87 29 -109 47 -207 64 -354 18 -156 20 -353 3 -348 -19 7 -49 53 -58
89 l-8 34 -1 -37 c-1 -21 4 -38 9 -38 6 0 10 -5 10 -11 0 -7 -7 -8 -17 -4 -10
3 -31 9 -48 12 -29 5 -29 5 -10 -11 20 -16 20 -16 -2 -22 -13 -3 -23 -13 -23
-21 0 -8 -4 -12 -9 -9 -5 3 -14 -1 -20 -8 -8 -10 -9 -16 -1 -21 5 -3 10 -15
10 -26 0 -14 -7 -19 -29 -19 -25 0 -28 3 -24 23 3 15 2 18 -5 9 -5 -8 -23 -12
-43 -10 -25 2 -40 -3 -56 -20 -13 -13 -23 -27 -23 -33 0 -5 -7 -9 -15 -9 -8 0
-15 -7 -15 -16 0 -8 -4 -13 -9 -10 -5 4 -11 1 -13 -6 -8 -23 -30 4 -24 31 3
14 3 20 0 13 -3 -7 -15 -17 -26 -23 -19 -10 -20 -9 -15 10 3 15 0 21 -10 21
-13 0 -13 3 -3 15 9 10 9 15 1 15 -17 0 -17 -60 0 -71 14 -9 -21 -34 -68 -49
-23 -7 -40 -16 -38 -21 3 -4 -2 -14 -11 -23 -8 -9 -13 -20 -9 -25 7 -13 -16
-26 -24 -14 -8 13 -52 27 -50 16 6 -36 -25 -38 -34 -2 -3 10 -11 19 -19 19
-10 0 -9 -3 2 -10 13 -9 13 -10 0 -10 -12 -1 -11 -4 4 -15 18 -14 18 -15 -5
-34 -25 -21 -26 -22 -76 -26 -17 -1 -41 -12 -54 -24 -13 -11 -28 -21 -35 -21
-7 0 -18 -16 -25 -35 -16 -44 -29 -45 -30 -2 -1 17 -3 24 -6 14 -3 -12 -11
-16 -23 -12 -27 9 -14 -32 17 -52 21 -14 22 -17 8 -32 -9 -11 -11 -21 -5 -27
5 -5 6 -15 0 -24 -7 -12 -10 -11 -15 5 -15 43 -31 70 -44 73 -22 5 -51 -8 -51
-23 0 -8 -9 -17 -20 -20 -11 -3 -20 -10 -20 -15 0 -5 -9 -11 -19 -15 -17 -5
-35 -38 -32 -57 2 -14 -20 -8 -25 7 -4 8 -14 15 -23 15 -9 0 -23 6 -29 12 -10
10 -15 10 -21 -1 -7 -11 -11 -10 -18 4 -9 15 -11 15 -16 1 -4 -10 2 -20 16
-27 28 -15 58 -49 52 -59 -3 -4 -19 -10 -35 -12 -23 -4 -29 -1 -25 9 12 31 15
47 5 27 -16 -29 -75 -55 -92 -40 -7 6 -5 2 5 -10 16 -19 16 -23 2 -55 -29 -61
-44 -84 -57 -84 -7 0 -15 -16 -18 -38 -3 -21 -9 -36 -15 -35 -25 7 -32 -166
-10 -260 17 -70 65 -172 103 -217 23 -28 25 -28 19 -7 -3 13 -3 21 0 18 4 -3
15 1 25 11 23 21 24 6 1 -21 -12 -14 -9 -13 10 4 35 31 68 96 60 117 -4 11 -2
14 5 9 6 -4 11 1 12 11 1 10 4 55 6 101 3 45 9 82 14 82 4 0 23 -15 41 -32 18
-18 27 -26 21 -16 -11 13 -10 18 0 24 7 4 10 3 5 -1 -4 -5 0 -17 10 -27 9 -10
12 -18 8 -18 -4 0 0 -9 10 -20 10 -11 21 -17 25 -15 4 3 7 -3 6 -13 0 -9 5
-16 12 -14 8 1 11 -2 6 -9 -3 -6 -2 -14 3 -18 6 -3 27 -47 47 -98 33 -84 37
-100 37 -190 0 -164 -44 -278 -151 -396 -99 -107 -276 -187 -414 -187 -192 1
-399 127 -481 293 -48 98 -62 185 -46 294 15 105 32 149 90 238 25 39 45 74
43 78 -1 5 2 6 7 3 12 -8 133 127 177 197 67 105 76 132 115 316 44 206 54
229 148 320 67 64 142 114 322 214 74 41 133 80 131 86 -1 6 1 10 5 10 20 -3
34 2 28 11 -3 5 0 8 7 5 7 -2 40 20 73 51 33 31 53 54 45 51 -11 -3 -16 2 -15
18 0 13 4 27 9 32 5 4 6 3 3 -3 -4 -6 2 -19 12 -28 15 -14 21 -15 27 -4 17 27
13 40 -8 22 -19 -18 -20 -18 -7 9 7 15 16 27 20 27 4 0 6 11 5 25 0 14 -5 25
-9 25 -5 0 -5 5 -2 10 4 6 11 7 17 4 7 -5 8 -2 3 6 -6 10 -14 7 -32 -14 -13
-15 -20 -33 -16 -39 4 -7 -2 -5 -12 3 -17 14 -18 14 -6 -8 11 -21 11 -23 -6
-14 -15 8 -27 2 -66 -35 -26 -24 -45 -48 -42 -53 3 -4 -5 -6 -17 -2 -16 4 -19
2 -13 -8 6 -9 4 -11 -4 -6 -7 5 -20 1 -29 -7 -32 -29 -218 -112 -338 -151 -65
-21 -127 -43 -136 -47 -10 -5 -26 -9 -35 -8 -12 0 -7 5 13 14 17 8 36 21 43
29 7 9 17 13 22 10 5 -3 18 0 30 7 17 9 19 13 8 20 -10 7 -5 8 12 3 17 -3 30
-1 34 7 6 8 4 10 -5 4 -8 -5 -11 -4 -6 3 4 6 14 8 23 5 11 -4 14 -3 9 5 -5 8
-2 10 8 6 9 -3 16 -1 16 5 0 6 7 11 16 11 9 0 12 5 8 12 -4 7 -3 8 5 4 6 -4
19 -2 27 5 12 10 12 14 2 21 -10 7 -10 8 2 7 30 -3 41 1 34 14 -4 6 -4 9 1 5
11 -10 47 11 40 22 -3 6 0 7 7 5 16 -7 218 161 218 180 0 3 -6 3 -12 -1 -7 -4
-4 2 6 14 23 26 34 29 16 5 -7 -10 6 2 28 27 23 25 39 51 37 58 -3 7 -1 10 5
7 11 -7 42 49 32 60 -4 5 -2 5 4 2 13 -8 47 60 38 75 -4 7 -2 8 5 4 13 -9 55
80 47 101 -3 8 -2 12 2 9 9 -5 35 98 52 204 12 76 12 304 0 340 -4 14 -8 19
-9 11 -1 -8 -4 -12 -7 -9 -3 3 0 15 7 26 14 22 4 76 -12 66 -7 -4 -7 2 1 16 7
13 9 33 4 48 -4 15 -6 35 -5 45 1 9 -3 17 -9 17 -7 0 -10 6 -7 14 3 7 -4 51
-16 97 -16 64 -22 78 -29 63 -5 -12 -6 -5 -3 21 4 29 3 36 -4 25 -6 -8 -11
-25 -11 -37 0 -27 -24 -30 -48 -7 -14 15 -17 15 -27 0 -16 -21 -22 -20 -28 3
-3 12 1 22 10 25 15 6 9 26 -8 26 -6 0 -7 -5 -4 -10z m105 -100 c0 -5 -5 -10
-11 -10 -5 0 -7 5 -4 10 3 6 8 10 11 10 2 0 4 -4 4 -10z m40 -15 c0 -8 -2 -15
-4 -15 -2 0 -6 7 -10 15 -3 8 -1 15 4 15 6 0 10 -7 10 -15z m-53 -37 c-3 -8
-6 -5 -6 6 -1 11 2 17 5 13 3 -3 4 -12 1 -19z m20 -10 c-3 -7 -5 -2 -5 12 0
14 2 19 5 13 2 -7 2 -19 0 -25z m-300 -170 c-3 -8 -6 -5 -6 6 -1 11 2 17 5 13
3 -3 4 -12 1 -19z m144 -318 c23 -13 24 -37 2 -62 -21 -23 -36 -23 -57 1 -21
23 -14 57 12 64 9 3 18 5 20 6 2 0 12 -4 23 -9z m999 -120 c0 -5 -7 -10 -16
-10 -8 0 -12 5 -9 10 3 6 10 10 16 10 5 0 9 -4 9 -10z m35 -50 c3 -5 1 -10 -4
-10 -6 0 -11 5 -11 10 0 6 2 10 4 10 3 0 8 -4 11 -10z m-953 -627 c-6 -3 -9
-10 -5 -16 3 -7 3 -9 -2 -5 -4 4 -15 2 -24 -4 -9 -7 -5 0 8 15 14 15 27 24 30
21 3 -4 0 -9 -7 -11z m-1588 -28 c-4 -8 -15 -15 -25 -15 -10 0 -19 7 -19 15 0
9 9 15 25 15 18 0 23 -4 19 -15z m36 -25 c0 -5 -5 -10 -11 -10 -5 0 -7 5 -4
10 3 6 8 10 11 10 2 0 4 -4 4 -10z m40 -4 c0 -3 -4 -8 -10 -11 -5 -3 -10 -1
-10 4 0 6 5 11 10 11 6 0 10 -2 10 -4z m1520 -16 c0 -5 -2 -10 -4 -10 -3 0 -8
5 -11 10 -3 6 -1 10 4 10 6 0 11 -4 11 -10z m-1560 -20 c0 -5 -2 -10 -4 -10
-3 0 -8 5 -11 10 -3 6 -1 10 4 10 6 0 11 -4 11 -10z m1526 -21 c-33 -26 -40
-24 -13 4 12 13 26 22 30 19 4 -2 -3 -12 -17 -23z m830 -38 c5 -5 18 -11 29
-14 20 -5 19 -5 -1 -6 -11 0 -29 6 -40 14 -10 8 -14 15 -8 15 5 0 14 -4 20 -9z
m-1366 -81 c0 -5 -4 -10 -10 -10 -5 0 -10 5 -10 10 0 6 5 10 10 10 6 0 10 -4
10 -10z m-300 -30 c0 -5 -4 -10 -10 -10 -5 0 -10 5 -10 10 0 6 5 10 10 10 6 0
10 -4 10 -10z m1340 -55 c0 -9 -6 -12 -15 -9 -8 4 -15 10 -15 15 0 5 7 9 15 9
8 0 15 -7 15 -15z m300 -6 c0 -5 -4 -9 -10 -9 -5 0 -10 7 -10 16 0 8 5 12 10
9 6 -3 10 -10 10 -16z m-1710 -19 c0 -5 -13 -10 -30 -10 -16 0 -30 5 -30 10 0
6 14 10 30 10 17 0 30 -4 30 -10z m1300 -26 c0 -8 -5 -12 -10 -9 -6 4 -8 11
-5 16 9 14 15 11 15 -7z m40 -5 c0 -24 -23 -21 -28 4 -2 10 3 17 12 17 10 0
16 -9 16 -21z m-1255 -9 c-3 -5 -11 -10 -16 -10 -6 0 -7 5 -4 10 3 6 11 10 16
10 6 0 7 -4 4 -10z m1390 0 c3 -5 1 -10 -4 -10 -6 0 -11 5 -11 10 0 6 2 10 4
10 3 0 8 -4 11 -10z m177 -49 c8 11 9 10 4 -4 -3 -10 -2 -26 3 -36 7 -13 5
-21 -11 -32 -11 -8 -26 -19 -32 -25 -14 -14 -46 25 -46 56 0 11 -4 18 -10 15
-5 -3 -10 -1 -10 5 0 7 6 10 14 7 17 -7 65 14 67 28 1 6 4 1 6 -9 4 -15 7 -16
15 -5z m-1705 -23 c-3 -8 -6 -5 -6 6 -1 11 2 17 5 13 3 -3 4 -12 1 -19z m-127
8 c0 -3 -4 -8 -10 -11 -5 -3 -10 -1 -10 4 0 6 5 11 10 11 6 0 10 -2 10 -4z
m-15 -58 c6 -4 2 -8 -7 -8 -10 0 -18 7 -18 17 0 9 3 12 8 7 4 -5 12 -12 17
-16z m115 12 c0 -5 -5 -10 -11 -10 -5 0 -7 5 -4 10 3 6 8 10 11 10 2 0 4 -4 4
-10z m-30 -14 c0 -2 -8 -10 -17 -17 -16 -13 -17 -12 -4 4 13 16 21 21 21 13z
m-1393 -28 c-3 -8 -6 -5 -6 6 -1 11 2 17 5 13 3 -3 4 -12 1 -19z m3168 12 c-3
-5 -12 -10 -18 -10 -7 0 -6 4 3 10 19 12 23 12 15 0z m-1865 -65 c-7 -9 -15
-13 -17 -11 -7 7 7 26 19 26 6 0 6 -6 -2 -15z m1550 -4 c0 -6 -4 -13 -10 -16
-5 -3 -10 1 -10 9 0 9 5 16 10 16 6 0 10 -4 10 -9z m69 -73 c-7 -13 -36 -46
-66 -75 -29 -28 -53 -55 -53 -60 0 -9 -39 -37 -55 -39 -5 -1 -14 -2 -20 -3 -5
-1 -4 -5 4 -10 11 -7 3 -22 -36 -68 -27 -33 -55 -57 -62 -55 -8 3 -11 0 -7 -7
4 -6 3 -18 -2 -27 -8 -14 -10 -12 -14 10 -3 14 -1 26 4 26 13 0 78 70 78 83 0
18 -13 33 -32 40 -11 4 -18 2 -18 -5 0 -9 -3 -9 -12 0 -13 13 15 42 65 68 15
8 27 19 27 24 0 6 7 10 15 10 8 0 15 5 15 10 0 6 4 10 10 10 5 0 26 11 46 25
21 14 45 24 54 23 8 -2 27 7 40 20 30 28 34 28 19 0z m-560 -27 c-1 -13 -2
-13 -6 2 -6 24 -23 21 -23 -5 0 -12 -3 -19 -6 -15 -4 3 -3 18 0 32 6 22 9 25
21 15 8 -7 14 -20 14 -29z m-19 -41 c0 -5 -5 -10 -11 -10 -5 0 -7 5 -4 10 3 6
8 10 11 10 2 0 4 -4 4 -10z m-1180 -40 c-12 -17 -24 -29 -27 -26 -6 5 40 65
46 60 2 -1 -7 -17 -19 -34z m1288 -25 c3 -18 3 -19 -10 -3 -7 9 -22 19 -33 21
-12 3 -8 5 10 4 21 -1 31 -8 33 -22z m-29 -10 c22 -21 5 -55 -28 -55 -33 0
-48 14 -55 54 -5 28 -4 28 32 21 20 -3 43 -12 51 -20z m-1592 -33 c8 -31 -7
-56 -37 -60 -14 -2 -20 0 -16 7 4 6 1 9 -7 5 -9 -3 -17 3 -20 17 -7 25 9 62
23 54 5 -3 11 -1 15 4 10 17 35 0 42 -27z m306 13 c-3 -9 -8 -14 -10 -11 -3 3
-2 9 2 15 9 16 15 13 8 -4z m1247 -51 c0 -2 -9 -4 -20 -4 -11 0 -20 4 -20 9 0
5 9 7 20 4 11 -3 20 -7 20 -9z m224 1 c-4 -8 -14 -15 -23 -15 -9 0 -22 -13
-28 -31 -7 -17 -17 -28 -22 -24 -16 9 -13 25 4 25 8 0 15 6 15 14 0 7 10 21
23 29 28 20 38 21 31 2z m-2364 -25 c0 -13 -70 -13 -90 0 -11 7 0 10 38 10 28
0 52 -4 52 -10z m-100 -20 c0 -5 -9 -10 -20 -10 -11 0 -20 5 -20 10 0 6 9 10
20 10 11 0 20 -4 20 -10z m-68 -38 c3 -11 0 -29 -7 -42 -11 -20 -12 -18 -12
24 -1 45 10 55 19 18z m888 -64 c-7 -28 -8 -24 -8 27 0 46 2 54 8 33 4 -14 4
-41 0 -60z m118 34 c-6 -7 -14 -9 -17 -5 -4 4 -10 11 -14 14 -5 4 3 6 16 5 20
-1 23 -4 15 -14z m-35 -62 c-3 -11 -7 -20 -9 -20 -2 0 -4 9 -4 20 0 11 4 20 9
20 5 0 7 -9 4 -20z m856 -100 c0 -10 -3 -8 -9 5 -12 27 -12 43 0 25 5 -8 9
-22 9 -30z m-1664 -220 c-3 -5 -12 -10 -18 -10 -7 0 -6 4 3 10 19 12 23 12 15
0z m141 -192 l29 -33 -32 29 c-31 28 -38 36 -30 36 2 0 16 -15 33 -32z m701 0
c-3 -7 -5 -2 -5 12 0 14 2 19 5 13 2 -7 2 -19 0 -25z m10 -90 c-3 -8 -6 -5 -6
6 -1 11 2 17 5 13 3 -3 4 -12 1 -19z m-543 -24 c3 -8 2 -12 -4 -9 -6 3 -10 10
-10 16 0 14 7 11 14 -7z m-998 -546 c5 -16 2 -25 -12 -33 -10 -5 -30 -22 -44
-36 -30 -31 -60 -24 -60 13 0 57 100 105 116 56z"/>
<path d="M6186 5375 c-10 -8 -24 -16 -30 -18 -7 -3 -8 -8 -1 -14 6 -6 20 1 37
19 28 30 25 37 -6 13z"/>
<path d="M6081 5301 c-18 -16 -19 -20 -6 -25 9 -3 13 -2 10 4 -3 5 6 12 20 16
14 3 25 10 25 15 0 15 -26 10 -49 -10z"/>
<path d="M5710 5285 c0 -8 2 -15 4 -15 2 0 6 7 10 15 3 8 1 15 -4 15 -6 0 -10
-7 -10 -15z"/>
<path d="M3990 7516 c0 -19 -51 -51 -59 -38 -4 7 -12 8 -21 2 -13 -8 -12 -10
2 -10 11 0 15 -5 12 -15 -5 -11 -2 -13 12 -8 13 5 15 3 9 -7 -5 -8 -4 -11 2
-7 24 15 22 -26 -2 -48 -17 -16 -21 -25 -12 -29 7 -4 2 -4 -11 -2 -12 2 -20 0
-16 -5 3 -5 10 -9 15 -9 6 0 19 -10 29 -22 l17 -22 13 23 c10 19 10 22 -2 18
-7 -2 -12 -10 -10 -16 1 -7 -2 -10 -7 -7 -16 10 -5 39 15 41 16 1 19 -5 19
-31 0 -18 -3 -30 -7 -28 -4 3 -5 -2 -2 -10 3 -9 10 -14 14 -11 4 3 7 -3 6 -13
0 -9 4 -16 11 -15 7 2 10 -3 7 -10 -3 -8 5 -36 17 -63 12 -27 21 -55 20 -62
-1 -8 5 -6 16 5 12 11 17 28 15 43 -4 24 -4 25 12 5 20 -25 20 -16 1 21 -8 16
-15 36 -14 44 0 8 5 3 11 -12 13 -38 25 -35 43 9 9 21 25 47 36 59 19 21 19
21 -1 39 -25 23 -18 33 20 29 23 -3 30 0 30 14 0 14 2 15 10 2 6 -9 5 -17 -3
-22 -7 -4 -7 -8 -2 -7 16 0 81 38 67 39 -7 0 -22 -5 -33 -10 -10 -6 -19 -7
-19 -2 0 17 60 36 73 23 6 -6 16 -11 22 -11 5 0 3 5 -5 11 -11 8 -8 9 15 5 22
-5 26 -4 15 4 -10 6 -11 10 -2 10 6 0 12 5 12 10 0 7 -7 7 -21 -1 -29 -15 -91
-17 -106 -3 -8 8 2 10 40 6 49 -4 51 -3 32 12 -11 8 -24 15 -30 16 -5 0 -3 -5
5 -10 12 -8 11 -10 -8 -10 -18 0 -22 4 -18 24 3 19 1 23 -11 19 -12 -5 -14 -3
-8 7 6 10 4 10 -10 2 -24 -13 -66 5 -58 24 7 18 -7 18 -21 0 -7 -10 -37 -15
-93 -18 -81 -3 -82 -3 -76 19 3 13 2 23 -1 23 -3 0 -6 -6 -6 -14z m219 -56 c7
0 9 -4 6 -10 -4 -6 -15 -4 -30 6 -14 9 -22 21 -18 27 4 6 11 4 18 -6 7 -10 18
-17 24 -17z m-218 13 c0 -5 2 -16 4 -25 4 -21 1 -22 -26 -7 -16 8 -18 13 -8
25 12 15 29 19 30 7z m263 -24 c-3 -5 -10 -7 -15 -3 -5 3 -7 10 -3 15 3 5 10
7 15 3 5 -3 7 -10 3 -15z m-86 -166 c-14 -16 -31 -41 -37 -58 l-11 -30 6 34
c4 19 18 44 33 57 36 32 40 30 9 -3z m-53 -23 c3 -5 1 -10 -4 -10 -6 0 -11 5
-11 10 0 6 2 10 4 10 3 0 8 -4 11 -10z m-50 -52 c-6 -17 -4 -20 9 -15 9 4 16
2 16 -3 0 -6 -4 -10 -9 -10 -5 0 -7 -9 -4 -20 8 -32 -6 -23 -20 12 -10 23 -10
36 -3 45 16 18 18 16 11 -9z"/>
<path d="M3896 7442 c-8 -24 -3 -37 12 -31 4 2 5 15 2 29 l-6 25 -8 -23z"/>
<path d="M3833 7423 c9 -2 23 -2 30 0 6 3 -1 5 -18 5 -16 0 -22 -2 -12 -5z"/>
<path d="M3875 7370 c3 -5 8 -10 11 -10 2 0 4 5 4 10 0 6 -5 10 -11 10 -5 0
-7 -4 -4 -10z"/>
<path d="M4181 7334 c6 -7 19 -12 30 -11 24 2 7 20 -21 22 -15 1 -17 -1 -9
-11z"/>
<path d="M6970 7201 c0 -7 -4 -10 -8 -7 -5 3 -19 -6 -31 -20 -23 -26 -58 -29
-53 -3 2 8 -7 4 -22 -10 l-26 -25 22 -24 23 -24 -30 7 -30 6 28 -21 c15 -12
27 -26 27 -32 0 -5 -12 0 -26 11 -15 12 -34 21 -43 20 -12 0 -11 -2 4 -8 11
-5 28 -18 39 -30 10 -11 24 -18 30 -14 6 3 8 3 4 -1 -3 -4 4 -29 17 -54 12
-26 25 -54 29 -62 3 -8 4 -4 0 10 -3 14 -7 34 -8 45 -2 14 -2 15 1 2 3 -10 10
-20 18 -23 8 -3 11 -14 7 -27 -3 -12 -2 -19 2 -16 4 4 8 19 10 35 6 47 107
160 134 149 9 -3 13 -2 8 2 -9 9 -57 12 -51 3 2 -3 -5 -11 -16 -18 -11 -7 -19
-8 -19 -2 0 5 5 10 11 10 7 0 9 10 5 28 -5 20 -4 23 4 12 5 -8 10 -10 10 -4 0
20 -22 33 -41 23 -15 -7 -17 -6 -13 6 4 8 1 15 -5 15 -6 0 -11 -5 -11 -12 0
-6 -2 -9 -5 -7 -2 3 -2 15 2 27 5 22 6 22 27 5 l21 -18 -20 25 c-11 14 -21 27
-22 29 -2 2 -3 -1 -3 -8z m-100 -75 c-15 -15 -33 4 -19 20 10 12 14 12 20 2 5
-7 4 -17 -1 -22z m140 -20 c0 -3 -4 -8 -10 -11 -5 -3 -10 -1 -10 4 0 6 5 11
10 11 6 0 10 -2 10 -4z m-7 -71 c-7 -21 -13 -19 -13 6 0 11 4 18 10 14 5 -3 7
-12 3 -20z m-56 -47 c-3 -8 -6 -5 -6 6 -1 11 2 17 5 13 3 -3 4 -12 1 -19z"/>
<path d="M3431 7048 c-14 -22 -1 -46 18 -34 18 11 13 26 -6 19 -16 -6 -16 -5
-4 10 8 10 12 19 10 22 -3 2 -11 -5 -18 -17z"/>
<path d="M3418 7000 c14 -16 16 -34 3 -25 -5 3 -12 1 -16 -5 -3 -5 -1 -10 5
-10 8 0 8 -6 0 -20 -8 -15 -6 -21 10 -30 21 -11 16 -45 -6 -36 -9 3 -11 0 -7
-11 5 -12 3 -14 -7 -8 -9 5 -11 4 -6 -4 4 -6 11 -9 16 -6 12 7 40 -23 40 -43
0 -13 -5 -11 -20 8 l-21 25 13 -30 c15 -38 28 -54 28 -34 0 8 9 30 19 50 21
39 17 52 -26 95 -14 14 -22 29 -17 33 16 11 15 38 -3 52 -15 11 -16 11 -5 -1z
m56 -135 c2 -7 -2 -21 -10 -32 -9 -10 -13 -13 -10 -7 5 11 -16 37 -25 31 -2
-1 1 3 8 9 7 6 10 14 6 18 -4 4 0 4 9 1 9 -4 19 -13 22 -20z"/>
<path d="M3450 6969 c0 -57 45 -83 104 -60 18 7 18 8 3 14 -9 3 -17 2 -17 -3
0 -6 -8 -10 -18 -10 -22 0 -52 30 -52 51 0 8 -5 21 -10 29 -7 11 -10 6 -10
-21z"/>
<path d="M3485 6961 c-9 -15 1 -28 26 -34 20 -5 20 -5 3 16 -11 12 -20 23 -20
25 -1 2 -5 -1 -9 -7z"/>
<path d="M3330 6930 c-8 -5 -12 -12 -9 -15 4 -3 12 1 19 10 14 17 11 19 -10 5z"/>
<path d="M6625 6890 c-4 -6 -1 -9 7 -8 7 2 12 -3 10 -10 -1 -8 2 -11 8 -7 8 5
7 11 -1 21 -14 17 -16 17 -24 4z"/>
<path d="M3495 6880 c3 -5 8 -10 11 -10 2 0 4 5 4 10 0 6 -5 10 -11 10 -5 0
-7 -4 -4 -10z"/>
<path d="M6650 6800 c0 -5 5 -10 11 -10 5 0 7 5 4 10 -3 6 -8 10 -11 10 -2 0
-4 -4 -4 -10z"/>
<path d="M3090 6638 c-12 -22 -12 -22 6 -6 10 10 15 20 12 24 -4 3 -12 -5 -18
-18z"/>
<path d="M7447 6589 c7 -7 15 -10 18 -7 3 3 -2 9 -12 12 -14 6 -15 5 -6 -5z"/>
<path d="M7377 6555 c-4 -8 -3 -16 1 -19 4 -3 9 4 9 15 2 23 -3 25 -10 4z"/>
<path d="M4705 6370 c-3 -5 -1 -10 4 -10 6 0 11 5 11 10 0 6 -2 10 -4 10 -3 0
-8 -4 -11 -10z"/>
<path d="M4886 6364 c-9 -24 -7 -27 9 -10 17 17 19 26 6 26 -5 0 -12 -7 -15
-16z"/>
<path d="M4697 6343 c-12 -11 -8 -23 8 -23 8 0 15 7 15 15 0 16 -12 20 -23 8z"/>
<path d="M6466 6223 c-6 -14 -5 -15 5 -6 7 7 10 15 7 18 -3 3 -9 -2 -12 -12z"/>
<path d="M4120 6180 c0 -5 5 -10 10 -10 6 0 10 5 10 10 0 6 -4 10 -10 10 -5 0
-10 -4 -10 -10z"/>
<path d="M5910 6168 c0 -9 -6 -18 -12 -21 -7 -2 -9 -8 -5 -13 4 -5 12 -2 16 5
6 8 14 10 22 5 11 -6 11 -3 -1 12 -8 10 -16 21 -17 23 -2 2 -3 -3 -3 -11z"/>
<path d="M6685 6020 c-8 -13 -1 -24 14 -19 6 3 7 10 2 18 -6 10 -10 10 -16 1z"/>
<path d="M6535 6010 c-3 -5 -1 -10 4 -10 6 0 11 5 11 10 0 6 -2 10 -4 10 -3 0
-8 -4 -11 -10z"/>
<path d="M6495 5983 c11 -3 26 -12 33 -21 11 -15 14 -15 22 -2 16 26 11 30
-32 29 -24 -1 -34 -3 -23 -6z"/>
<path d="M6391 5964 c0 -11 3 -14 6 -6 3 7 2 16 -1 19 -3 4 -6 -2 -5 -13z"/>
<path d="M6490 5950 c0 -5 5 -10 10 -10 6 0 10 5 10 10 0 6 -4 10 -10 10 -5 0
-10 -4 -10 -10z"/>
<path d="M6170 5846 c7 -7 13 -7 20 0 6 6 3 10 -10 10 -13 0 -16 -4 -10 -10z"/>
<path d="M6315 5829 c-4 -6 -5 -12 -2 -15 2 -3 7 2 10 11 7 17 1 20 -8 4z"/>
<path d="M6124 5800 c0 -11 6 -16 16 -13 10 3 9 -1 -4 -11 -17 -14 -17 -16 -4
-16 21 0 30 14 22 33 -8 23 -30 27 -30 7z"/>
<path d="M6087 5779 c7 -7 15 -10 18 -7 3 3 -2 9 -12 12 -14 6 -15 5 -6 -5z"/>
<path d="M6050 5730 c0 -5 5 -10 10 -10 6 0 10 5 10 10 0 6 -4 10 -10 10 -5 0
-10 -4 -10 -10z"/>
<path d="M6070 5700 c-9 -6 -10 -10 -3 -10 6 0 15 5 18 10 8 12 4 12 -15 0z"/>
<path d="M4445 5634 c-20 -30 -11 -46 10 -18 13 18 20 44 11 44 -2 0 -11 -12
-21 -26z"/>
<path d="M5895 5650 c-3 -5 -1 -10 4 -10 6 0 11 5 11 10 0 6 -2 10 -4 10 -3 0
-8 -4 -11 -10z"/>
<path d="M5850 5630 c0 -5 4 -10 9 -10 6 0 13 5 16 10 3 6 -1 10 -9 10 -9 0
-16 -4 -16 -10z"/>
<path d="M5810 5610 c8 -5 20 -10 25 -10 6 0 3 5 -5 10 -8 5 -19 10 -25 10 -5
0 -3 -5 5 -10z"/>
<path d="M5705 5550 c-3 -6 1 -7 9 -4 18 7 21 14 7 14 -6 0 -13 -4 -16 -10z"/>
<path d="M5660 5540 c-8 -5 -12 -12 -9 -15 4 -3 12 1 19 10 14 17 11 19 -10 5z"/>
<path d="M5581 5493 c-7 -8 -20 -12 -30 -8 -13 5 -14 4 -3 -7 10 -10 16 -10
32 0 21 13 27 3 9 -15 -8 -8 -8 -13 0 -18 6 -3 10 -2 9 4 -2 5 6 16 16 24 19
14 19 14 0 25 -14 7 -22 6 -33 -5z"/>
<path d="M4380 5457 c0 -9 -4 -17 -10 -17 -5 0 -10 -9 -10 -20 0 -11 4 -20 9
-20 10 0 24 60 16 68 -3 3 -5 -2 -5 -11z"/>
<path d="M5507 5464 c-3 -3 -3 -13 0 -21 5 -12 1 -14 -18 -8 -22 7 -22 7 -5
-10 16 -17 18 -17 32 4 11 16 22 20 37 16 17 -5 19 -4 7 4 -8 6 -23 8 -34 5
-12 -4 -16 -2 -12 5 8 12 3 15 -7 5z"/>
<path d="M5500 5390 c-8 -5 -11 -12 -7 -16 4 -4 13 -2 19 4 15 15 7 24 -12 12z"/>
<path d="M4351 5374 c0 -11 3 -14 6 -6 3 7 2 16 -1 19 -3 4 -6 -2 -5 -13z"/>
<path d="M3683 5320 c0 -25 2 -35 4 -22 2 12 2 32 0 45 -2 12 -4 2 -4 -23z"/>
<path d="M5369 5323 c-13 -16 -12 -17 4 -4 9 7 17 15 17 17 0 8 -8 3 -21 -13z"/>
<path d="M5405 5330 c-3 -5 -1 -10 4 -10 6 0 11 5 11 10 0 6 -2 10 -4 10 -3 0
-8 -4 -11 -10z"/>
<path d="M5380 5300 c0 -5 5 -10 10 -10 6 0 10 5 10 10 0 6 -4 10 -10 10 -5 0
-10 -4 -10 -10z"/>
<path d="M3400 5295 c0 -5 5 -17 10 -25 5 -8 10 -10 10 -5 0 6 -5 17 -10 25
-5 8 -10 11 -10 5z"/>
<path d="M5306 5194 c-28 -28 -34 -47 -13 -39 11 5 51 65 43 65 -2 0 -15 -12
-30 -26z"/>
<path d="M4806 4605 c-9 -14 -14 -31 -10 -37 4 -7 3 -8 -4 -4 -14 8 -36 -40
-26 -56 4 -7 2 -8 -4 -4 -17 10 -25 -53 -20 -147 4 -63 11 -94 31 -134 15 -29
32 -53 38 -53 5 0 8 -4 5 -9 -10 -16 80 -88 138 -110 68 -25 151 -27 226 -5
56 16 55 34 -2 34 -41 0 -169 62 -207 100 -27 28 -36 32 -51 22 -15 -9 -18 -8
-15 6 1 9 9 16 16 14 8 -2 2 8 -12 21 -14 14 -31 39 -38 56 -8 17 -18 28 -24
24 -5 -3 -7 -2 -4 4 3 5 0 34 -8 63 -15 57 -22 210 -11 229 14 23 -2 10 -18
-14z"/>
<path d="M5546 4560 c-5 -19 -9 -43 -8 -53 1 -10 -1 -16 -6 -14 -4 3 -8 -7 -9
-21 -1 -24 1 -23 19 11 11 23 18 53 16 75 l-3 37 -9 -35z"/>
<path d="M5493 4458 c-4 -7 -8 -17 -8 -23 -1 -5 -6 -9 -12 -8 -6 1 -19 -8 -29
-20 -12 -14 -13 -17 -3 -9 9 6 19 9 23 5 3 -4 15 3 26 15 12 12 16 22 9 22 -8
0 -8 4 1 15 7 8 10 15 7 15 -3 0 -9 -6 -14 -12z"/>
<path d="M3720 3639 c0 -5 45 -56 101 -113 324 -337 722 -530 1189 -577 387
-39 839 81 1189 315 132 88 415 361 391 376 -20 13 -2870 12 -2870 -1z"/>
<path d="M3126 2559 c-130 -20 -233 -95 -291 -212 -90 -182 -62 -362 79 -502
95 -95 199 -133 328 -121 114 10 238 70 238 114 0 19 -79 152 -90 152 -5 0
-32 -12 -61 -27 -109 -57 -221 -30 -286 69 -24 36 -28 51 -28 117 0 90 21 132
87 177 61 41 149 41 231 0 32 -15 59 -26 61 -25 63 95 87 142 82 161 -17 68
-203 120 -350 97z"/>
<path d="M3660 2543 c-38 -15 -39 -29 -40 -405 l0 -367 26 -20 c41 -32 136
-30 169 4 24 23 25 30 25 140 l0 115 130 0 130 0 0 -115 c0 -110 1 -117 25
-140 20 -21 34 -25 83 -25 44 0 66 5 83 19 l24 19 3 366 3 366 -26 26 c-24 24
-32 26 -92 22 -99 -6 -103 -14 -103 -199 l0 -149 -129 0 -130 0 -3 156 c-3
150 -4 157 -27 175 -17 14 -38 19 -80 18 -31 0 -63 -3 -71 -6z"/>
<path d="M4678 2530 c-19 -14 -44 -69 -93 -202 -37 -101 -92 -248 -122 -328
-69 -188 -73 -211 -40 -244 22 -22 35 -26 86 -26 74 0 104 27 125 113 l6 27
130 0 c72 0 133 0 138 1 4 0 17 -25 30 -58 12 -32 30 -64 39 -70 9 -7 45 -13
80 -13 51 0 66 4 83 22 11 12 20 34 20 50 0 44 -241 699 -267 726 -19 19 -32
22 -106 22 -69 0 -89 -4 -109 -20z m144 -357 c20 -59 36 -109 34 -111 -8 -7
-135 -6 -142 1 -8 8 56 216 66 217 3 0 22 -48 42 -107z"/>
<path d="M5290 2543 c-39 -14 -40 -26 -40 -405 0 -431 -6 -408 103 -408 102 0
107 7 107 156 l0 124 29 0 c31 0 49 -18 166 -173 32 -43 68 -85 79 -93 29 -20
145 -19 174 2 34 24 27 55 -33 130 -54 67 -110 153 -103 158 100 67 138 133
138 238 0 37 -5 80 -12 95 -26 60 -78 120 -130 149 l-53 29 -205 2 c-113 1
-212 0 -220 -4z m376 -216 c32 -37 32 -87 0 -124 -23 -26 -28 -27 -112 -28
l-89 0 -3 94 -3 93 91 -3 c86 -4 93 -6 116 -32z"/>
<path d="M6030 2530 c-28 -28 -28 -117 1 -154 20 -25 24 -26 120 -26 l99 0 1
-97 c1 -54 2 -185 3 -291 1 -191 1 -194 25 -213 17 -14 39 -19 83 -19 49 0 63
4 83 25 l25 24 0 286 0 285 94 0 c75 0 98 4 116 18 44 35 35 163 -13 176 -12
3 -156 6 -319 6 -285 0 -299 -1 -318 -20z"/>
<path d="M6769 2529 c-14 -14 -18 -27 -13 -42 4 -12 59 -105 124 -207 64 -102
122 -195 129 -207 6 -13 11 -75 11 -156 0 -121 2 -137 21 -161 18 -23 27 -26
84 -26 103 0 106 5 112 187 5 131 9 157 27 187 74 121 104 168 171 268 41 61
75 119 75 128 0 35 -33 50 -112 50 -58 0 -81 -4 -97 -17 -11 -10 -51 -70 -89
-133 -38 -63 -74 -116 -80 -118 -5 -1 -39 48 -76 110 -92 160 -90 158 -186
158 -67 0 -83 -3 -101 -21z"/>
<path d="M3910 1463 c-96 -50 -106 -182 -18 -246 38 -28 114 -29 134 -2 8 11
18 18 22 16 4 -3 8 3 10 12 4 22 -26 33 -49 19 -53 -33 -108 6 -113 81 -1 25
0 45 3 44 3 -1 19 7 34 17 25 17 33 18 62 8 58 -22 90 11 41 43 -38 25 -87 28
-126 8z"/>
<path d="M5142 1468 c-18 -18 -16 -238 2 -263 23 -32 44 -12 51 49 4 31 5 62
1 71 -8 23 4 18 26 -10 11 -14 24 -22 30 -19 6 4 8 2 5 -3 -7 -11 68 -103 83
-103 5 0 16 7 24 16 13 12 16 39 16 130 0 73 -4 113 -10 109 -6 -3 -7 1 -4 9
5 12 0 16 -19 16 -20 0 -25 -6 -31 -37 -3 -21 -6 -56 -6 -78 -1 -38 -1 -39
-16 -20 -8 11 -20 19 -25 17 -6 -1 -8 1 -5 6 7 11 -81 122 -97 122 -7 0 -18
-5 -25 -12z"/>
<path d="M5600 1460 c-5 -10 -10 -71 -10 -134 0 -104 2 -116 19 -126 15 -7 23
-6 35 6 13 12 16 39 16 127 0 62 -4 117 -8 123 -14 21 -41 24 -52 4z"/>
<path d="M5858 1470 c-14 -4 -23 -13 -23 -25 0 -16 9 -21 40 -25 l40 -5 2 -90
c4 -113 9 -135 31 -135 35 0 42 21 42 121 l0 97 41 7 c41 7 60 28 42 46 -11
11 -179 17 -215 9z"/>
<path d="M6253 1473 c-19 -7 -17 -15 32 -94 37 -59 45 -82 45 -120 0 -49 18
-76 45 -65 9 3 15 18 15 38 0 44 19 109 37 130 8 9 12 22 7 29 -5 8 -3 10 6 4
10 -6 12 -4 6 11 -4 10 -4 15 0 11 10 -10 34 13 34 33 0 46 -65 18 -95 -41
-20 -39 -31 -37 -55 11 -17 32 -48 63 -62 59 -2 0 -9 -3 -15 -6z"/>
<path d="M4257 1463 c-4 -3 -7 -64 -7 -134 0 -121 1 -128 21 -134 29 -9 40 5
46 59 l6 46 48 0 49 0 0 -43 c0 -24 5 -48 12 -55 19 -19 45 -14 52 11 9 34 7
230 -3 245 -4 8 -19 12 -32 10 -21 -3 -24 -9 -27 -55 l-3 -53 -48 0 c-46 0
-49 1 -55 31 -3 17 -6 42 -6 55 0 18 -5 24 -23 24 -13 0 -27 -3 -30 -7z"/>
<path d="M4727 1352 c-51 -128 -55 -150 -32 -158 20 -8 47 15 41 33 -3 8 -1
11 4 8 6 -3 10 -2 10 4 0 5 29 11 64 13 35 1 62 0 60 -4 -9 -13 20 -58 37 -58
34 0 30 36 -18 156 -48 119 -48 119 -83 122 l-36 3 -47 -119z m99 -10 c6 -31
5 -32 -25 -32 l-31 0 15 36 c8 20 15 39 15 42 0 18 21 -19 26 -46z"/>
<path d="M3223 1323 c-22 -8 -14 -33 13 -43 34 -13 240 -13 265 0 23 13 25 36
3 44 -19 7 -263 7 -281 -1z"/>
<path d="M6811 1321 c-22 -14 -6 -37 29 -45 62 -12 225 -7 245 8 16 12 17 16
6 30 -11 13 -36 16 -140 16 -69 0 -132 -4 -140 -9z"/>
</g>
</svg>
